#!OML:ASF I:\Actors\actors\Patient Classification 1\Patient 1\Session 1\Subject1.ASF
:FULLY-SPECIFIED
:DEGREES
1288
root -0.0949383 17.5953 9.94983 19.8475 19.2343 -10.5189
lowerback 7.20041 0.835916 2.8302
upperback -12.7092 1.72534 -0.00356165
thorax -18.5003 0.439652 -1.99162
lowerneck -16.915 0.355167 1.96025
upperneck 26.0045 -2.3559 8.31447
head 11.3883 0.227135 2.38893
rclavicle 5.20443e-014 -7.95139e-015
rhumerus -39.9347 -50.6688 -5.55118
rradius 59.9835
rwrist 29.0007
rhand -28.0196 -53.2376
rfingers 7.12502
rthumb -1.40484 -83.2128
lclavicle 5.20443e-014 -7.95139e-015
lhumerus -22.7526 35.4018 26.3308
lradius 70.0046
lwrist -14.0947
lhand -56.6308 -67.7344
lfingers 7.12502
lthumb -28.9389 -39.9602
rfemur -7.67949 29.5718 26.8104
rtibia -1.85452
rfoot -25.2336 -42.8588
rtoes 20.2219
lfemur -19.3542 -62.7377 15.8347
ltibia -4.48832
lfoot -31.1975 61.7329
ltoes 10.8696
1289
root -0.091351 17.594 9.94889 19.9075 19.111 -10.5152
lowerback 7.29747 0.937755 3.14089
upperback -12.9088 1.89418 -0.244478
thorax -18.8092 0.439625 -2.48979
lowerneck -17.0507 0.224739 2.20729
upperneck 26.3614 -2.5816 8.07097
head 11.5565 0.135757 2.23515
rclavicle 4.8665e-014 -2.70347e-014
rhumerus -43.0428 -50.5744 -5.34802
rradius 59.5856
rwrist 29.2503
rhand -29.142 -52.6315
rfingers 7.12502
rthumb -2.48881 -82.5967
lclavicle 4.8665e-014 -2.70347e-014
lhumerus -24.0092 34.4815 27.5154
lradius 69.7032
lwrist -14.3791
lhand -56.4731 -68.7927
lfingers 7.12502
lthumb -28.7883 -40.9928
rfemur -7.76639 29.6615 26.7211
rtibia -1.85031
rfoot -25.199 -42.8692
rtoes 20.1519
lfemur -19.2098 -62.5821 15.6901
ltibia -4.59604
lfoot -31.0029 61.7322
ltoes 10.9051
1290
root -0.0866342 17.5936 9.9476 19.9846 18.9827 -10.454
lowerback 7.03359 0.868054 2.88138
upperback -12.8371 1.76928 -0.0545935
thorax -18.5505 0.446261 -2.08679
lowerneck -17.2669 0.282677 2.23563
upperneck 26.4013 -2.4073 7.65813
head 11.5984 0.168243 2.10455
rclavicle -1.45361e-015 1.11319e-014
rhumerus -44.5109 -51.1533 -6.1358
rradius 58.9313
rwrist 29.7877
rhand -29.6591 -52.6009
rfingers 7.12502
rthumb -2.98824 -82.5597
lclavicle -1.45361e-015 1.11319e-014
lhumerus -25.9542 34.5592 28.4635
lradius 69.4728
lwrist -14.8867
lhand -56.1125 -70.375
lfingers 7.12502
lthumb -28.4438 -42.517
rfemur -7.8516 29.6687 26.5719
rtibia -1.86142
rfoot -25.019 -42.8797
rtoes 19.8398
lfemur -19.1006 -62.4422 15.4973
ltibia -4.66621
lfoot -31.2177 61.6202
ltoes 11.331
1291
root -0.0808072 17.5926 9.94486 20.0215 18.8593 -10.3881
lowerback 6.79139 0.775752 2.64763
upperback -12.7205 1.61855 0.14502
thorax -18.2481 0.437126 -1.68365
lowerneck -17.3879 0.332321 2.14517
upperneck 26.276 -2.23809 7.40796
head 11.5621 0.199261 2.04887
rclavicle -1.11816e-014 -3.33958e-014
rhumerus -45.7428 -51.6853 -7.13433
rradius 58.2244
rwrist 29.8573
rhand -30.1866 -53.0262
rfingers 7.12502
rthumb -3.49762 -82.9772
lclavicle -1.11816e-014 -3.33958e-014
lhumerus -27.9241 34.7719 29.3182
lradius 69.2974
lwrist -15.4084
lhand -56.002 -71.1187
lfingers 7.12502
lthumb -28.3381 -43.243
rfemur -7.87505 29.6587 26.4454
rtibia -1.88491
rfoot -24.8604 -42.8664
rtoes 19.734
lfemur -18.9555 -62.338 15.238
ltibia -4.66969
lfoot -31.453 61.4656
ltoes 11.6743
1292
root -0.0757167 17.5914 9.94144 20.0538 18.732 -10.3539
lowerback 6.9463 0.835718 3.06491
upperback -12.8736 1.7411 -0.117191
thorax -18.5357 0.400844 -2.25313
lowerneck -17.3539 0.1755 2.24234
upperneck 26.367 -2.47865 7.34474
head 11.5976 0.0954095 1.97506
rclavicle 1.4238e-014 1.90833e-014
rhumerus -48.4719 -51.5332 -7.19845
rradius 57.7266
rwrist 29.5271
rhand -30.4369 -53.2163
rfingers 7.12502
rthumb -3.73934 -83.1632
lclavicle 1.4238e-014 1.90833e-014
lhumerus -29.2638 34.0982 30.2029
lradius 69.0578
lwrist -15.5607
lhand -56.1224 -71.2793
lfingers 7.12502
lthumb -28.4532 -43.4228
rfemur -7.89441 29.8491 26.3446
rtibia -1.90661
rfoot -24.871 -42.9789
rtoes 19.8217
lfemur -18.8353 -62.2135 15.0281
ltibia -4.65251
lfoot -31.2951 61.4058
ltoes 11.5292
1293
root -0.0697484 17.5903 9.93944 20.0988 18.5468 -10.3387
lowerback 6.7238 0.793928 2.96788
upperback -12.7858 1.67663 0.0327977
thorax -18.2765 0.406873 -2.00335
lowerneck -17.4984 0.204546 2.32584
upperneck 26.325 -2.33869 6.88713
head 11.5947 0.107505 1.81067
rclavicle -3.79803e-014 1.27222e-014
rhumerus -49.9011 -51.8515 -8.00848
rradius 57.2108
rwrist 29.5678
rhand -29.9864 -52.3408
rfingers 7.12502
rthumb -3.30429 -82.2949
lclavicle -3.79803e-014 1.27222e-014
lhumerus -31.1254 34.3232 31.0356
lradius 68.8794
lwrist -15.5166
lhand -56.1312 -71.7962
lfingers 7.12502
lthumb -28.4616 -43.9411
rfemur -7.93476 30.1324 26.2322
rtibia -1.91502
rfoot -24.9614 -43.0873
rtoes 19.8451
lfemur -18.6395 -62.0341 14.7596
ltibia -4.65823
lfoot -31.4503 61.304
ltoes 11.796
1294
root -0.0630505 17.59 9.93766 20.1325 18.3111 -10.3548
lowerback 6.50725 0.781725 2.93659
upperback -12.6889 1.65873 0.150446
thorax -18.0057 0.421245 -1.83906
lowerneck -17.6275 0.191847 2.39577
upperneck 26.2757 -2.25446 6.43463
head 11.5885 0.0931086 1.64218
rclavicle 3.50109e-014 7.95139e-015
rhumerus -51.4245 -52.1208 -8.75114
rradius 56.7077
rwrist 30.0762
rhand -29.7412 -51.0424
rfingers 7.12502
rthumb -3.06757 -81.0001
lclavicle 3.50109e-014 7.95139e-015
lhumerus -32.8815 34.609 31.8119
lradius 68.6432
lwrist -15.7335
lhand -56.0383 -71.8199
lfingers 7.12502
lthumb -28.3728 -43.95
rfemur -7.99616 30.3741 26.1401
rtibia -1.88216
rfoot -25.0576 -43.0989
rtoes 19.9236
lfemur -18.3529 -61.8071 14.4448
ltibia -4.71134
lfoot -31.9019 61.162
ltoes 12.5597
1295
root -0.0581383 17.5901 9.93441 20.1591 18.098 -10.3707
lowerback 6.44235 0.783686 3.09451
upperback -12.6619 1.67927 0.138538
thorax -17.922 0.409565 -1.94284
lowerneck -17.4551 0.170817 2.21911
upperneck 25.9029 -2.23752 6.56975
head 11.4133 0.0845368 1.71507
rclavicle -1.73937e-015 -1.74931e-014
rhumerus -53.0837 -52.0776 -9.49399
rradius 56.1083
rwrist 31.125
rhand -30.5441 -51.4237
rfingers 7.12502
rthumb -3.84286 -81.3688
lclavicle -1.73937e-015 -1.74931e-014
lhumerus -34.4592 34.7031 32.45
lradius 68.2287
lwrist -16.3597
lhand -56.0799 -71.9106
lfingers 7.12502
lthumb -28.4125 -44.0473
rfemur -8.06255 30.5289 26.0768
rtibia -1.8273
rfoot -25.1094 -43.0991
rtoes 19.9359
lfemur -18.1234 -61.5882 14.196
ltibia -4.76609
lfoot -31.8512 61.1294
ltoes 12.7485
1296
root -0.0545982 17.589 9.93089 20.16 17.8873 -10.3592
lowerback 6.38995 0.773626 3.18948
upperback -12.6086 1.67596 0.150557
thorax -17.8156 0.398486 -1.97884
lowerneck -17.6098 0.0496152 2.30324
upperneck 25.9733 -2.31611 6.09466
head 11.4626 -3.86175e-005 1.51527
rclavicle -8.25578e-014 0
rhumerus -54.4677 -52.0906 -10.3558
rradius 55.509
rwrist 32.7741
rhand -31.1937 -53.1152
rfingers 7.12502
rthumb -4.4702 -83.048
lclavicle -8.25578e-014 0
lhumerus -36.0608 34.9836 33.0806
lradius 67.7239
lwrist -17.1513
lhand -56.3311 -72.3981
lfingers 7.12502
lthumb -28.6526 -44.5751
rfemur -8.08612 30.4149 26.0379
rtibia -1.78325
rfoot -24.7968 -42.962
rtoes 19.6155
lfemur -17.8427 -61.4025 13.8639
ltibia -4.79032
lfoot -31.5062 61.1249
ltoes 12.4537
